<?xml version="1.0" encoding="UTF-8" standalone="no"?>
<!DOCTYPE svg PUBLIC "-//W3C//DTD SVG 1.1//EN" "http://www.w3.org/Graphics/SVG/1.1/DTD/svg11.dtd">
<svg width="100%" height="100%" viewBox="0 0 701 201" version="1.1" xmlns="http://www.w3.org/2000/svg" xmlns:xlink="http://www.w3.org/1999/xlink" xml:space="preserve" xmlns:serif="http://www.serif.com/" style="fill-rule:evenodd;clip-rule:evenodd;stroke-linejoin:round;stroke-miterlimit:2;">
    <g transform="matrix(1,0,0,1,-2449,-1079)">
        <g id="Plan-de-travail1" serif:id="Plan de travail1" transform="matrix(0.364583,0,0,0.185185,2449.15,1079.58)">
            <rect x="0" y="0" width="1920" height="1080" style="fill:none;"/>
            <g transform="matrix(0.77704,0,0,2.71964,-348.925,-378.527)">
                <g transform="matrix(3.52988,-2.22045e-16,-2.22045e-16,1.98556,-8196.17,-2004.38)">
                    <path d="M2531.82,1264.19C2540.32,1272.69 2554.09,1272.69 2562.59,1264.19L2547.2,1248.81L2531.82,1264.19ZM2562.59,1264.19L2601.05,1225.73L2585.67,1210.35L2547.2,1248.81L2562.59,1264.19ZM2531.82,1233.42L2562.59,1202.65C2571.09,1194.16 2571.09,1180.38 2562.59,1171.88L2539.51,1194.96C2526.77,1207.71 2506.1,1207.71 2493.36,1194.96C2480.61,1182.22 2480.61,1161.55 2493.36,1148.81C2493.36,1148.81 2531.82,1110.35 2531.82,1110.35L2516.44,1094.96L2477.97,1133.42C2456.73,1154.66 2456.73,1189.1 2477.97,1210.35C2487.3,1219.67 2499.17,1224.9 2511.35,1226.04C2508.58,1233.72 2510.28,1242.65 2516.44,1248.81L2531.82,1233.42L2524.13,1225.73L2524.13,1225.73L2531.82,1233.42ZM2554.89,1133.42L2554.89,1133.42L2547.2,1125.73L2516.44,1156.5L2531.82,1171.88L2539.51,1164.19C2552.26,1151.45 2572.92,1151.45 2585.67,1164.19C2598.41,1176.94 2598.41,1197.6 2585.67,1210.35L2601.05,1225.73C2622.29,1204.49 2622.29,1170.05 2601.05,1148.81C2591.73,1139.48 2579.86,1134.25 2567.68,1133.11C2570.44,1125.43 2568.75,1116.5 2562.59,1110.35L2547.2,1125.73L2554.89,1133.42ZM2516.44,1156.5C2507.94,1165 2507.94,1178.77 2516.44,1187.27L2531.82,1171.88L2516.44,1156.5ZM2547.2,1094.96C2538.71,1086.46 2524.93,1086.46 2516.44,1094.96L2531.82,1110.35L2547.2,1094.96Z" style="fill:rgb(0,0,92);"/>
                </g>
                <g transform="matrix(12.8888,0,0,7.24997,-37642.6,-1663.12)">
                    <text x="3010px" y="287.898px" style="font-family:'SpaceGrotesk-Bold', 'Space Grotesk';font-weight:700;font-size:41.91px;fill:rgb(0,0,92);">Syneki</text>
                </g>
            </g>
        </g>
    </g>
</svg>
